<mxfile host="app.diagrams.net" modified="2023-12-08T17:45:11.696Z" agent="Mozilla/5.0 (Windows NT 10.0; Win64; x64) AppleWebKit/537.36 (KHTML, like Gecko) Chrome/119.0.0.0 Safari/537.36" etag="JyooaDcs9zM8mtijaT6O" version="22.1.7" type="device">
  <diagram name="Page-1" id="wh8dD2BX7OOQ52GZGnCQ">
    <mxGraphModel dx="2835" dy="1030" grid="1" gridSize="10" guides="1" tooltips="1" connect="1" arrows="1" fold="1" page="1" pageScale="1" pageWidth="850" pageHeight="1100" math="0" shadow="0">
      <root>
        <mxCell id="0" />
        <mxCell id="1" parent="0" />
        <mxCell id="dDhOK2jrjEGGhazRPi_E-33" value="" style="rounded=1;whiteSpace=wrap;html=1;" vertex="1" parent="1">
          <mxGeometry x="-330" y="530" width="1230" height="720" as="geometry" />
        </mxCell>
        <mxCell id="dDhOK2jrjEGGhazRPi_E-1" value="" style="rounded=1;whiteSpace=wrap;html=1;" vertex="1" parent="1">
          <mxGeometry x="160" y="669" width="580" height="440" as="geometry" />
        </mxCell>
        <mxCell id="dDhOK2jrjEGGhazRPi_E-2" value="&lt;font size=&quot;1&quot; style=&quot;&quot;&gt;&lt;b style=&quot;font-size: 25px;&quot;&gt;Server&lt;/b&gt;&lt;/font&gt;" style="text;html=1;strokeColor=none;fillColor=none;align=center;verticalAlign=middle;whiteSpace=wrap;rounded=0;" vertex="1" parent="1">
          <mxGeometry x="385" y="689" width="130" height="30" as="geometry" />
        </mxCell>
        <mxCell id="dDhOK2jrjEGGhazRPi_E-3" value="" style="rounded=1;whiteSpace=wrap;html=1;strokeWidth=2;" vertex="1" parent="1">
          <mxGeometry x="225" y="939" width="200" height="110" as="geometry" />
        </mxCell>
        <mxCell id="dDhOK2jrjEGGhazRPi_E-5" value="&lt;font style=&quot;font-size: 16px;&quot;&gt;Ecom-Repo Image&lt;/font&gt;" style="text;html=1;strokeColor=none;fillColor=none;align=center;verticalAlign=middle;whiteSpace=wrap;rounded=0;" vertex="1" parent="1">
          <mxGeometry x="270" y="979" width="110" height="30" as="geometry" />
        </mxCell>
        <mxCell id="dDhOK2jrjEGGhazRPi_E-7" value="&lt;font style=&quot;font-size: 16px;&quot;&gt;DB&lt;/font&gt;" style="shape=cylinder3;whiteSpace=wrap;html=1;boundedLbl=1;backgroundOutline=1;size=15;strokeWidth=2;" vertex="1" parent="1">
          <mxGeometry x="560" y="929" width="90" height="120" as="geometry" />
        </mxCell>
        <mxCell id="dDhOK2jrjEGGhazRPi_E-8" value="&lt;font style=&quot;font-size: 16px;&quot;&gt;PostgreSQL&lt;/font&gt;" style="text;html=1;strokeColor=none;fillColor=none;align=center;verticalAlign=middle;whiteSpace=wrap;rounded=0;" vertex="1" parent="1">
          <mxGeometry x="555" y="1059" width="100" height="30" as="geometry" />
        </mxCell>
        <mxCell id="dDhOK2jrjEGGhazRPi_E-10" value="&lt;font style=&quot;font-size: 16px;&quot;&gt;Cache&lt;/font&gt;" style="shape=cylinder3;whiteSpace=wrap;html=1;boundedLbl=1;backgroundOutline=1;size=15;strokeWidth=2;" vertex="1" parent="1">
          <mxGeometry x="275" y="769" width="90" height="100" as="geometry" />
        </mxCell>
        <mxCell id="dDhOK2jrjEGGhazRPi_E-14" value="" style="shape=flexArrow;endArrow=classic;startArrow=classic;html=1;rounded=0;strokeWidth=2;" edge="1" parent="1">
          <mxGeometry width="100" height="100" relative="1" as="geometry">
            <mxPoint x="324.29" y="937" as="sourcePoint" />
            <mxPoint x="324.29" y="867" as="targetPoint" />
            <Array as="points">
              <mxPoint x="324.29" y="897" />
            </Array>
          </mxGeometry>
        </mxCell>
        <mxCell id="dDhOK2jrjEGGhazRPi_E-15" value="" style="shape=flexArrow;endArrow=classic;startArrow=classic;html=1;rounded=0;strokeWidth=2;" edge="1" parent="1" source="dDhOK2jrjEGGhazRPi_E-3" target="dDhOK2jrjEGGhazRPi_E-7">
          <mxGeometry width="100" height="100" relative="1" as="geometry">
            <mxPoint x="460" y="879" as="sourcePoint" />
            <mxPoint x="560" y="779" as="targetPoint" />
          </mxGeometry>
        </mxCell>
        <mxCell id="dDhOK2jrjEGGhazRPi_E-16" value="" style="shape=sumEllipse;perimeter=ellipsePerimeter;whiteSpace=wrap;html=1;backgroundOutline=1;strokeWidth=2;" vertex="1" parent="1">
          <mxGeometry x="345" y="839" width="30" height="30" as="geometry" />
        </mxCell>
        <mxCell id="dDhOK2jrjEGGhazRPi_E-17" value="&lt;font style=&quot;font-size: 16px;&quot;&gt;Redis&lt;/font&gt;" style="text;html=1;strokeColor=none;fillColor=none;align=center;verticalAlign=middle;whiteSpace=wrap;rounded=0;" vertex="1" parent="1">
          <mxGeometry x="270" y="739" width="100" height="30" as="geometry" />
        </mxCell>
        <mxCell id="dDhOK2jrjEGGhazRPi_E-18" value="" style="rounded=1;whiteSpace=wrap;html=1;strokeWidth=2;" vertex="1" parent="1">
          <mxGeometry x="535" y="749" width="140" height="90" as="geometry" />
        </mxCell>
        <mxCell id="dDhOK2jrjEGGhazRPi_E-19" value="&lt;font style=&quot;font-size: 16px;&quot;&gt;Pg-Admin&lt;/font&gt;" style="text;html=1;strokeColor=none;fillColor=none;align=center;verticalAlign=middle;whiteSpace=wrap;rounded=0;" vertex="1" parent="1">
          <mxGeometry x="550" y="779" width="110" height="30" as="geometry" />
        </mxCell>
        <mxCell id="dDhOK2jrjEGGhazRPi_E-20" style="edgeStyle=orthogonalEdgeStyle;rounded=0;orthogonalLoop=1;jettySize=auto;html=1;entryX=0.5;entryY=0;entryDx=0;entryDy=0;entryPerimeter=0;strokeWidth=2;" edge="1" parent="1" source="dDhOK2jrjEGGhazRPi_E-18" target="dDhOK2jrjEGGhazRPi_E-7">
          <mxGeometry relative="1" as="geometry" />
        </mxCell>
        <mxCell id="dDhOK2jrjEGGhazRPi_E-27" value="" style="rounded=1;whiteSpace=wrap;html=1;" vertex="1" parent="1">
          <mxGeometry x="-160" y="669" width="275" height="440" as="geometry" />
        </mxCell>
        <mxCell id="dDhOK2jrjEGGhazRPi_E-28" value="&lt;font size=&quot;1&quot; style=&quot;&quot;&gt;&lt;b style=&quot;font-size: 25px;&quot;&gt;Client App&lt;/b&gt;&lt;/font&gt;" style="text;html=1;strokeColor=none;fillColor=none;align=center;verticalAlign=middle;whiteSpace=wrap;rounded=0;" vertex="1" parent="1">
          <mxGeometry x="-101.25" y="689" width="157.5" height="30" as="geometry" />
        </mxCell>
        <mxCell id="dDhOK2jrjEGGhazRPi_E-29" value="" style="shape=actor;whiteSpace=wrap;html=1;strokeWidth=3;" vertex="1" parent="1">
          <mxGeometry x="-58.75" y="789" width="72.5" height="80" as="geometry" />
        </mxCell>
        <mxCell id="dDhOK2jrjEGGhazRPi_E-31" value="&lt;font style=&quot;font-size: 14px;&quot;&gt;Web&lt;/font&gt;" style="rounded=1;whiteSpace=wrap;html=1;" vertex="1" parent="1">
          <mxGeometry x="-30" y="849" width="80" height="40" as="geometry" />
        </mxCell>
        <mxCell id="dDhOK2jrjEGGhazRPi_E-32" value="&lt;font style=&quot;font-size: 16px;&quot;&gt;Django&lt;/font&gt;" style="text;html=1;strokeColor=none;fillColor=none;align=center;verticalAlign=middle;whiteSpace=wrap;rounded=0;" vertex="1" parent="1">
          <mxGeometry x="275" y="1059" width="100" height="30" as="geometry" />
        </mxCell>
        <mxCell id="dDhOK2jrjEGGhazRPi_E-34" value="&lt;font size=&quot;1&quot; style=&quot;&quot;&gt;&lt;b style=&quot;font-size: 30px;&quot;&gt;System Architecture&lt;/b&gt;&lt;/font&gt;" style="text;html=1;strokeColor=none;fillColor=none;align=center;verticalAlign=middle;whiteSpace=wrap;rounded=0;" vertex="1" parent="1">
          <mxGeometry x="120" y="570" width="330" height="30" as="geometry" />
        </mxCell>
      </root>
    </mxGraphModel>
  </diagram>
</mxfile>
